<svg width="10" height="14" viewBox="0 0 10 14" fill="none" xmlns="http://www.w3.org/2000/svg">
<path d="M4.99967 6.66665C4.55765 6.66665 4.13372 6.49105 3.82116 6.17849C3.5086 5.86593 3.33301 5.44201 3.33301 4.99998C3.33301 4.55795 3.5086 4.13403 3.82116 3.82147C4.13372 3.50891 4.55765 3.33331 4.99967 3.33331C5.4417 3.33331 5.86563 3.50891 6.17819 3.82147C6.49075 4.13403 6.66634 4.55795 6.66634 4.99998C6.66634 5.21885 6.62323 5.43558 6.53947 5.63779C6.45572 5.83999 6.33295 6.02373 6.17819 6.17849C6.02342 6.33326 5.83969 6.45602 5.63748 6.53978C5.43527 6.62354 5.21854 6.66665 4.99967 6.66665ZM4.99967 0.333313C3.762 0.333313 2.57501 0.824978 1.69984 1.70015C0.824673 2.57532 0.333008 3.7623 0.333008 4.99998C0.333008 8.49998 4.99967 13.6666 4.99967 13.6666C4.99967 13.6666 9.66634 8.49998 9.66634 4.99998C9.66634 3.7623 9.17468 2.57532 8.29951 1.70015C7.42434 0.824978 6.23735 0.333313 4.99967 0.333313Z" fill="#83A5FF"/>
</svg>
