<svg width="16" height="16" viewBox="0 0 16 16" fill="none" xmlns="http://www.w3.org/2000/svg">
<path d="M7.99967 13.3333C9.41416 13.3333 10.7707 12.7714 11.7709 11.7712C12.7711 10.771 13.333 9.41447 13.333 7.99998C13.333 6.58549 12.7711 5.22894 11.7709 4.22874C10.7707 3.22855 9.41416 2.66665 7.99967 2.66665C6.58519 2.66665 5.22863 3.22855 4.22844 4.22874C3.22824 5.22894 2.66634 6.58549 2.66634 7.99998C2.66634 9.41447 3.22824 10.771 4.22844 11.7712C5.22863 12.7714 6.58519 13.3333 7.99967 13.3333ZM7.99967 1.33331C8.87515 1.33331 9.74206 1.50575 10.5509 1.84078C11.3597 2.17581 12.0947 2.66688 12.7137 3.28593C13.3328 3.90499 13.8238 4.63992 14.1589 5.44876C14.4939 6.25759 14.6663 7.1245 14.6663 7.99998C14.6663 9.76809 13.964 11.4638 12.7137 12.714C11.4635 13.9643 9.76779 14.6666 7.99967 14.6666C4.31301 14.6666 1.33301 11.6666 1.33301 7.99998C1.33301 6.23187 2.03539 4.53618 3.28563 3.28593C4.53587 2.03569 6.23156 1.33331 7.99967 1.33331ZM8.33301 4.66665V8.16665L11.333 9.94665L10.833 10.7666L7.33301 8.66665V4.66665H8.33301Z" fill="#83A5FF"/>
</svg>
